<!--?xml version="1.0" standalone="no"?-->
              <svg id="sw-js-blob-svg" viewBox="0 0 100 100" xmlns="http://www.w3.org/2000/svg" version="1.1">
                    <defs> 
                        <linearGradient id="sw-gradient" x1="0" x2="1" y1="1" y2="0">
                            <stop id="stop1" stop-color="rgba(239, 255, 0, 0.58)" offset="0%"></stop>
                            <stop id="stop2" stop-color="rgba(239, 255, 0, 0.63)" offset="100%"></stop>
                        </linearGradient>
                    </defs>
                <path fill="url(#sw-gradient)" d="M21.6,-31.2C27.9,-25.1,33,-18.7,35.6,-11.4C38.1,-4.1,38.2,4.2,36.5,12.6C34.8,21.1,31.4,29.8,25,34.9C18.6,40,9.3,41.5,0.9,40.3C-7.6,39.1,-15.1,35.2,-22.5,30.4C-29.8,25.6,-37,20,-40.3,12.4C-43.7,4.9,-43.3,-4.5,-40.7,-13.5C-38.1,-22.5,-33.4,-31,-26.3,-36.9C-19.2,-42.8,-9.6,-46,-1,-44.6C7.6,-43.3,15.2,-37.4,21.6,-31.2Z" width="100%" height="100%" transform="translate(50 50)" stroke-width="0" style="transition: all 0.3s ease 0s;" stroke="url(#sw-gradient)"></path>
              </svg>