<!--?xml version="1.0" standalone="no"?-->
              <svg id="sw-js-blob-svg" viewBox="0 0 100 100" xmlns="http://www.w3.org/2000/svg" version="1.1">
                    <defs> 
                        <linearGradient id="sw-gradient" x1="0" x2="1" y1="1" y2="0">
                            <stop id="stop1" stop-color="rgba(0, 255, 243, 0.4196078431372549)" offset="0%"></stop>
                            <stop id="stop2" stop-color="rgba(0, 255, 243, 0.36)" offset="100%"></stop>
                        </linearGradient>
                    </defs>
                <path fill="url(#sw-gradient)" d="M26.7,-30.3C34.5,-25.3,40.6,-16.8,42.9,-7.1C45.2,2.6,43.6,13.4,38.4,21.9C33.2,30.5,24.4,36.7,15,39.3C5.5,42,-4.5,41,-14.3,38.1C-24.1,35.1,-33.7,30,-38.1,22.1C-42.6,14.2,-41.9,3.5,-39.5,-6.4C-37,-16.2,-32.7,-25,-25.9,-30.2C-19,-35.4,-9.5,-36.8,0,-36.8C9.5,-36.8,18.9,-35.3,26.7,-30.3Z" width="100%" height="100%" transform="translate(50 50)" stroke-width="0" style="transition: all 0.3s ease 0s;"></path>
              </svg>